<?xml version="1.0" encoding="utf-8"?>
<!-- Generator: Adobe Illustrator 16.0.0, SVG Export Plug-In . SVG Version: 6.00 Build 0)  -->
<!DOCTYPE svg PUBLIC "-//W3C//DTD SVG 1.1//EN" "http://www.w3.org/Graphics/SVG/1.1/DTD/svg11.dtd">
<svg version="1.1" id="图层_1" xmlns="http://www.w3.org/2000/svg" xmlns:xlink="http://www.w3.org/1999/xlink" x="0px" y="0px"
	 width="40px" height="40px" viewBox="284.869 284.869 40 40" enable-background="new 284.869 284.869 40 40" xml:space="preserve">
<g>
	<path fill="#00B4E5" d="M304.87,285.367c5.386,0,10.261,2.184,13.79,5.712c3.527,3.529,5.711,8.405,5.711,13.79
		s-2.184,10.26-5.711,13.79c-3.529,3.529-8.404,5.711-13.79,5.711c-5.386,0-10.261-2.183-13.791-5.712s-5.712-8.404-5.712-13.79
		c0-5.386,2.183-10.261,5.712-13.79C294.609,287.55,299.484,285.367,304.87,285.367L304.87,285.367z M318.275,291.464
		c-3.432-3.431-8.17-5.553-13.405-5.553s-9.976,2.122-13.406,5.553c-3.431,3.431-5.553,8.17-5.553,13.405
		c0,5.235,2.122,9.975,5.553,13.405c3.43,3.431,8.17,5.553,13.406,5.553s9.974-2.122,13.405-5.553
		c3.43-3.431,5.553-8.17,5.553-13.405C323.828,299.634,321.705,294.895,318.275,291.464L318.275,291.464z"/>
	<path fill="#00B4E5" d="M303.651,293.619c1.123,0,2.14,0.455,2.876,1.192c0.734,0.735,1.189,1.752,1.189,2.875
		c0,1.123-0.455,2.14-1.189,2.875c-0.736,0.736-1.754,1.191-2.876,1.191c-1.124,0-2.14-0.455-2.876-1.191
		c-0.736-0.736-1.191-1.753-1.191-2.875c0-1.123,0.455-2.14,1.191-2.875C301.511,294.074,302.527,293.619,303.651,293.619
		L303.651,293.619z M306.141,295.194c-0.637-0.637-1.517-1.032-2.49-1.032c-0.974,0-1.854,0.395-2.491,1.032
		c-0.638,0.638-1.032,1.519-1.032,2.491s0.395,1.854,1.032,2.491c0.637,0.637,1.518,1.032,2.491,1.032
		c0.973,0,1.853-0.395,2.49-1.032c0.639-0.637,1.033-1.519,1.033-2.491S306.779,295.832,306.141,295.194L306.141,295.194z"/>
	<path fill="#00B4E5" d="M299.078,302.656h9.147c1.758,0,3.354,0.719,4.512,1.876c1.158,1.158,1.877,2.755,1.877,4.513v4.762
		c0,0.175-0.07,0.333-0.186,0.448l0,0c-0.006,0.007-0.014,0.013-0.02,0.019c-0.113,0.104-0.266,0.168-0.43,0.168h-2.426
		c-0.176,0-0.332-0.071-0.449-0.187c-0.113-0.115-0.186-0.273-0.186-0.448v-3.995c0-0.025-0.01-0.048-0.025-0.064
		c-0.018-0.017-0.041-0.026-0.064-0.026h-1.271c-0.025,0-0.047,0.01-0.064,0.026l0.002,0l0,0l0,0l-0.002,0.002
		c-0.014,0.016-0.025,0.038-0.025,0.063v3.995c0,0.174-0.07,0.333-0.186,0.447l-0.191-0.191l0.191,0.192l-0.004,0.004
		c-0.115,0.112-0.271,0.182-0.445,0.182h-10.327c-0.174,0-0.333-0.071-0.448-0.187l0.192-0.192l-0.193,0.192l-0.004-0.005
		c-0.112-0.114-0.182-0.271-0.182-0.443v-3.995c0-0.025-0.01-0.048-0.027-0.064c-0.016-0.017-0.039-0.026-0.063-0.026h-1.271
		c-0.025,0-0.048,0.01-0.065,0.026l0.001,0l0,0l0,0l-0.001,0.002c-0.016,0.016-0.026,0.038-0.026,0.063v3.995
		c0,0.175-0.071,0.333-0.186,0.448l0,0c-0.006,0.007-0.013,0.013-0.021,0.019c-0.113,0.104-0.263,0.168-0.427,0.168h-2.462
		c-0.175,0-0.333-0.071-0.449-0.187c-0.115-0.115-0.186-0.273-0.186-0.449v-4.761c0-1.758,0.719-3.355,1.876-4.513
		C295.723,303.375,297.32,302.656,299.078,302.656L299.078,302.656z M308.225,303.2h-9.147c-1.607,0-3.069,0.658-4.128,1.717
		s-1.718,2.521-1.718,4.129v4.761c0,0.025,0.011,0.048,0.027,0.065c0.017,0.016,0.039,0.026,0.064,0.026h2.462
		c0.021,0,0.042-0.007,0.057-0.02c0.002-0.002,0.004-0.004,0.006-0.006l0,0c0.017-0.017,0.026-0.04,0.026-0.065v-3.994
		c0-0.173,0.069-0.33,0.182-0.444l0.004-0.004l0.192,0.192l-0.191-0.192c0.115-0.115,0.273-0.186,0.448-0.186h1.271
		c0.175,0,0.333,0.071,0.448,0.186c0.116,0.115,0.187,0.273,0.187,0.449v3.995c0,0.024,0.009,0.046,0.025,0.063l0.001,0.001v0l0,0h0
		c0.017,0.017,0.039,0.026,0.064,0.026h10.327c0.023,0,0.047-0.01,0.063-0.025v-0.001l0,0l0,0h0.002
		c0.016-0.016,0.027-0.039,0.027-0.064v-3.995c0-0.173,0.068-0.33,0.18-0.444l0.006-0.004l0.191,0.192l-0.189-0.192
		c0.113-0.115,0.271-0.186,0.445-0.186h1.271c0.174,0,0.334,0.071,0.449,0.186c0.113,0.115,0.186,0.273,0.186,0.449v3.995
		c0,0.024,0.01,0.047,0.027,0.064c0.018,0.016,0.039,0.026,0.063,0.026h2.426c0.021,0,0.041-0.007,0.057-0.02
		c0.004-0.002,0.006-0.004,0.008-0.006l0,0c0.016-0.017,0.027-0.04,0.027-0.064v-4.762c0-1.607-0.658-3.069-1.717-4.128
		C311.291,303.857,309.832,303.2,308.225,303.2L308.225,303.2z"/>
	<path fill="#00B4E5" d="M310.047,294.481c-0.15,0-0.271,0.121-0.271,0.271c0,0.151,0.121,0.272,0.271,0.272h6.838
		c0.15,0,0.271-0.121,0.271-0.272c0-0.15-0.121-0.271-0.271-0.271H310.047L310.047,294.481z"/>
	<path fill="#00B4E5" d="M311.525,298.204c-0.15,0-0.273,0.122-0.273,0.272c0,0.15,0.123,0.272,0.273,0.272h5.359
		c0.15,0,0.271-0.122,0.271-0.272c0-0.15-0.121-0.272-0.271-0.272H311.525z"/>
	<path fill="#00B4E5" d="M312.951,301.927c-0.15,0-0.273,0.122-0.273,0.272c0,0.15,0.123,0.272,0.273,0.272h3.934
		c0.15,0,0.271-0.122,0.271-0.272c0-0.15-0.121-0.272-0.271-0.272H312.951z"/>
</g>
</svg>
