<?xml version="1.0" encoding="utf-8"?>
<!-- Generator: Adobe Illustrator 16.0.0, SVG Export Plug-In . SVG Version: 6.00 Build 0)  -->
<!DOCTYPE svg PUBLIC "-//W3C//DTD SVG 1.1//EN" "http://www.w3.org/Graphics/SVG/1.1/DTD/svg11.dtd">
<svg version="1.1" id="图层_1" xmlns="http://www.w3.org/2000/svg" xmlns:xlink="http://www.w3.org/1999/xlink" x="0px" y="0px"
	 width="40px" height="40px" viewBox="0 0 40 40" enable-background="new 0 0 40 40" xml:space="preserve">
<g>
	<path fill="#FDBB42" d="M20.001,0.499c5.387,0,10.262,2.182,13.789,5.711c3.528,3.529,5.711,8.405,5.711,13.79
		c0,5.385-2.183,10.26-5.711,13.79c-3.527,3.529-8.402,5.713-13.789,5.713S9.739,37.318,6.21,33.789S0.499,25.385,0.499,20
		c0-5.385,2.182-10.261,5.711-13.79S14.614,0.499,20.001,0.499z M33.407,6.594c-3.433-3.431-8.173-5.553-13.406-5.553
		c-5.234,0-9.976,2.123-13.406,5.553C3.165,10.026,1.042,14.764,1.042,20c0,5.235,2.123,9.975,5.553,13.405
		c3.433,3.432,8.172,5.553,13.406,5.553c5.233,0,9.975-2.121,13.406-5.553c3.43-3.43,5.551-8.17,5.551-13.405
		C38.958,14.765,36.837,10.026,33.407,6.594L33.407,6.594z"/>
	<path fill="#FDBB42" d="M8.068,15.913c-0.105-0.106-0.277-0.107-0.384-0.003c-0.106,0.104-0.108,0.276-0.004,0.384
		c0.037,0.037,0.074,0.074,0.111,0.11c1.402,1.372,3.213,2.061,5.021,2.061c1.809,0,3.619-0.688,5.023-2.061
		c0.035-0.036,0.072-0.073,0.109-0.11c1.416-1.447,2.125-3.342,2.125-5.234c0-1.895-0.709-3.789-2.125-5.234
		c-0.105-0.106-0.277-0.107-0.384-0.004c-0.106,0.104-0.108,0.276-0.004,0.385c1.312,1.339,1.968,3.096,1.968,4.854
		s-0.654,3.517-1.968,4.855c-0.035,0.034-0.067,0.068-0.104,0.104c-1.297,1.27-2.972,1.903-4.644,1.903
		c-1.674,0-3.346-0.635-4.643-1.903C8.136,15.983,8.103,15.948,8.068,15.913L8.068,15.913z"/>
	<path fill="#FDBB42" d="M12.212,21.307c0.012-0.148-0.1-0.281-0.248-0.293c-0.15-0.012-0.281,0.1-0.293,0.248l-0.453,5.311
		c-0.014,0.148,0.098,0.279,0.248,0.293c0.148,0.012,0.281-0.1,0.293-0.248L12.212,21.307z"/>
	<path fill="#FDBB42" d="M16.495,20.617c-0.049-0.141-0.203-0.216-0.347-0.165c-0.141,0.049-0.215,0.206-0.166,0.346l1.779,5.01
		c0.051,0.143,0.205,0.215,0.348,0.166c0.142-0.051,0.216-0.205,0.164-0.348L16.495,20.617L16.495,20.617z"/>
	<path fill="#FDBB42" d="M20.097,18.147c-0.104-0.106-0.276-0.109-0.385-0.006c-0.108,0.104-0.109,0.276-0.004,0.384l5,5.133
		c0.104,0.107,0.274,0.109,0.381,0.006c0.109-0.105,0.111-0.277,0.008-0.383L20.097,18.147z"/>
	<path fill="#FDBB42" d="M22.339,14.355c-0.141-0.053-0.295,0.019-0.35,0.158c-0.054,0.142,0.018,0.297,0.157,0.351l4.896,1.843
		c0.141,0.053,0.297-0.019,0.35-0.158c0.054-0.14-0.018-0.297-0.157-0.35L22.339,14.355z"/>
	<path fill="#FDBB42" d="M22.808,9.95c-0.147,0.013-0.262,0.144-0.248,0.293c0.015,0.149,0.146,0.262,0.293,0.248l5.201-0.436
		c0.148-0.012,0.26-0.143,0.248-0.292s-0.143-0.262-0.295-0.249L22.808,9.95z"/>
	<path fill="#FDBB42" d="M8.284,28.686c-0.15,0-0.271,0.123-0.271,0.271c0,0.15,0.121,0.271,0.271,0.271h23.284
		c0.15,0,0.273-0.121,0.273-0.271c0-0.148-0.123-0.271-0.273-0.271H8.284L8.284,28.686z"/>
	<path fill="#FDBB42" d="M8.284,31.521c-0.15,0-0.271,0.121-0.271,0.271c0,0.148,0.121,0.271,0.271,0.271h23.284
		c0.15,0,0.273-0.123,0.273-0.271c0-0.15-0.123-0.271-0.273-0.271H8.284L8.284,31.521z"/>
</g>
</svg>
