<?xml version="1.0" encoding="utf-8"?>
<!-- Generator: Adobe Illustrator 16.0.0, SVG Export Plug-In . SVG Version: 6.00 Build 0)  -->
<!DOCTYPE svg PUBLIC "-//W3C//DTD SVG 1.1//EN" "http://www.w3.org/Graphics/SVG/1.1/DTD/svg11.dtd">
<svg version="1.1" id="图层_1" xmlns="http://www.w3.org/2000/svg" xmlns:xlink="http://www.w3.org/1999/xlink" x="0px" y="0px"
	 width="40px" height="40px" viewBox="0 0 40 40" enable-background="new 0 0 40 40" xml:space="preserve">
<g>
	<path fill="#FC4141" d="M20,0.498c5.387,0,10.262,2.183,13.791,5.713c3.527,3.528,5.711,8.404,5.711,13.789
		s-2.184,10.26-5.711,13.789c-3.529,3.529-8.404,5.713-13.791,5.713c-5.385,0-10.26-2.184-13.789-5.713S0.498,25.385,0.498,20
		S2.682,9.739,6.211,6.211C9.74,2.681,14.615,0.498,20,0.498z M33.406,6.595C29.974,3.164,25.236,1.043,20,1.043
		c-5.234,0-9.975,2.121-13.404,5.552C3.164,10.026,1.043,14.765,1.043,20c0,5.234,2.121,9.975,5.553,13.406
		c3.43,3.43,8.17,5.551,13.404,5.551c5.236,0,9.975-2.121,13.406-5.551c3.43-3.434,5.553-8.172,5.553-13.406
		S36.836,10.026,33.406,6.595L33.406,6.595z"/>
	<path fill="#FC4141" d="M20,6.142L20,6.142c0.561,0,1.07,0.229,1.439,0.598c0.368,0.371,0.598,0.879,0.598,1.439v17.124
		c0,0.021,0.006,0.035,0.014,0.049c0.006,0.014,0.02,0.023,0.035,0.033c0.729,0.383,1.338,0.957,1.764,1.658
		c0.41,0.678,0.646,1.473,0.646,2.322c0,1.24-0.503,2.363-1.316,3.178c-0.813,0.813-1.938,1.314-3.178,1.314
		c-1.242,0-2.365-0.504-3.179-1.314c-0.813-0.814-1.315-1.939-1.315-3.178c0-0.852,0.235-1.645,0.646-2.322
		c0.424-0.701,1.033-1.275,1.763-1.658l0.127,0.24l-0.127-0.24c0.004-0.004,0.008-0.006,0.012-0.008
		c0.011-0.006,0.021-0.016,0.024-0.025c0.009-0.014,0.013-0.027,0.013-0.049V8.179c0-0.561,0.229-1.068,0.599-1.439
		C18.93,6.371,19.439,6.142,20,6.142L20,6.142z M20,6.685L20,6.685c-0.41,0-0.783,0.17-1.055,0.44
		c-0.271,0.271-0.438,0.644-0.438,1.054v17.124c0,0.119-0.032,0.232-0.092,0.33c-0.054,0.086-0.127,0.16-0.222,0.217
		c-0.01,0.006-0.02,0.012-0.026,0.018v-0.002c-0.642,0.336-1.179,0.844-1.552,1.459c-0.358,0.596-0.565,1.293-0.565,2.041
		c0,1.092,0.44,2.078,1.156,2.793c0.715,0.715,1.7,1.156,2.793,1.156c1.092,0,2.077-0.441,2.795-1.156
		c0.713-0.715,1.155-1.701,1.155-2.793c0-0.748-0.207-1.445-0.567-2.041c-0.373-0.617-0.91-1.123-1.549-1.459
		c-0.106-0.057-0.19-0.137-0.25-0.232c-0.06-0.098-0.091-0.209-0.091-0.328V8.18c0-0.409-0.168-0.782-0.438-1.054
		S20.41,6.685,20,6.685L20,6.685z"/>
	<path fill="#FC4141" d="M21.766,10.286c0.15,0,0.271-0.121,0.271-0.271s-0.121-0.271-0.271-0.271h-1.395
		c-0.15,0-0.271,0.121-0.271,0.271s0.121,0.271,0.271,0.271H21.766z"/>
	<path fill="#FC4141" d="M21.766,12.344c0.15,0,0.271-0.122,0.271-0.272c0-0.149-0.121-0.271-0.271-0.271h-1.395
		c-0.15,0-0.271,0.121-0.271,0.271c0,0.15,0.121,0.272,0.271,0.272H21.766z"/>
	<path fill="#FC4141" d="M21.766,14.4c0.15,0,0.271-0.121,0.271-0.271c0-0.15-0.121-0.272-0.271-0.272h-1.395
		c-0.15,0-0.271,0.122-0.271,0.272c0,0.149,0.121,0.271,0.271,0.271H21.766z"/>
	<path fill="#FC4141" d="M21.766,16.457c0.15,0,0.271-0.121,0.271-0.271c0-0.149-0.121-0.271-0.271-0.271h-1.395
		c-0.15,0-0.271,0.122-0.271,0.271c0,0.15,0.121,0.271,0.271,0.271H21.766z"/>
	<path fill="#FC4141" d="M21.766,18.514c0.15,0,0.271-0.121,0.271-0.271c0-0.15-0.121-0.271-0.271-0.271h-1.395
		c-0.15,0-0.271,0.121-0.271,0.271c0,0.149,0.121,0.271,0.271,0.271H21.766z"/>
	<path fill="#FC4141" d="M21.766,20.57c0.15,0,0.271-0.121,0.271-0.271s-0.121-0.272-0.271-0.272h-1.395
		c-0.15,0-0.271,0.122-0.271,0.272s0.121,0.271,0.271,0.271H21.766z"/>
	<path fill="#FC4141" d="M21.766,22.627c0.15,0,0.271-0.121,0.271-0.271c0-0.148-0.121-0.271-0.271-0.271h-1.395
		c-0.15,0-0.271,0.123-0.271,0.271c0,0.15,0.121,0.271,0.271,0.271H21.766z"/>
</g>
</svg>
