<?xml version="1.0" encoding="utf-8"?>
<!-- Generator: Adobe Illustrator 16.0.0, SVG Export Plug-In . SVG Version: 6.00 Build 0)  -->
<!DOCTYPE svg PUBLIC "-//W3C//DTD SVG 1.1//EN" "http://www.w3.org/Graphics/SVG/1.1/DTD/svg11.dtd">
<svg version="1.1" id="图层_1" xmlns="http://www.w3.org/2000/svg" xmlns:xlink="http://www.w3.org/1999/xlink" x="0px" y="0px"
	 width="40px" height="40px" viewBox="0 0 40 40" enable-background="new 0 0 40 40" xml:space="preserve">
<g>
	<path fill="#00A750" d="M20,0.498c5.387,0,10.262,2.183,13.791,5.712c3.527,3.528,5.711,8.405,5.711,13.791
		c0,5.386-2.184,10.261-5.711,13.791C30.262,37.32,25.387,39.502,20,39.502c-5.385,0-10.26-2.182-13.789-5.711
		S0.498,25.387,0.498,20c0-5.386,2.184-10.261,5.713-13.791S14.615,0.498,20,0.498z M33.406,6.593
		C29.974,3.163,25.236,1.041,20,1.041c-5.234,0-9.975,2.122-13.404,5.553C3.164,10.025,1.043,14.763,1.043,20
		c0,5.235,2.121,9.973,5.553,13.405c3.43,3.43,8.17,5.553,13.404,5.553c5.236,0,9.975-2.123,13.406-5.553
		c3.43-3.432,5.553-8.17,5.553-13.405C38.959,14.764,36.836,10.025,33.406,6.593L33.406,6.593z"/>
	<path fill="#00A750" d="M14.41,20.787c-0.006,0.012-0.013,0.023-0.019,0.035c-0.231,0.443-0.414,0.918-0.537,1.414
		c-0.121,0.486-0.186,0.998-0.186,1.525c0,1.748,0.709,3.33,1.854,4.477c1.146,1.145,2.729,1.854,4.478,1.854
		s3.332-0.709,4.477-1.854c1.146-1.146,1.854-2.729,1.854-4.477c0-0.527-0.063-1.039-0.185-1.523
		c-0.125-0.504-0.311-0.982-0.545-1.432h-0.004c-0.002-0.008-0.006-0.014-0.01-0.021L20,10.218L14.41,20.787L14.41,20.787z
		 M13.328,22.105c0.133-0.541,0.33-1.055,0.584-1.535c0.002-0.008,0.004-0.014,0.008-0.02l0,0l5.832-11.026
		c0.022-0.054,0.063-0.1,0.121-0.129c0.133-0.07,0.299-0.021,0.367,0.113L20,9.635l0.24-0.126l5.83,11.026
		c0.01,0.012,0.016,0.025,0.021,0.039c0.25,0.48,0.447,0.994,0.58,1.531c0.133,0.531,0.203,1.086,0.203,1.654
		c0,1.898-0.771,3.617-2.014,4.861c-1.244,1.244-2.964,2.012-4.861,2.012c-1.898,0-3.617-0.768-4.859-2.012
		c-1.244-1.244-2.014-2.963-2.014-4.861C13.127,23.191,13.197,22.637,13.328,22.105L13.328,22.105z"/>
	<path fill="#00A750" d="M26.026,13.39c-0.148,0-0.271,0.122-0.271,0.272c0,0.148,0.123,0.271,0.271,0.271h5.372
		c0.15,0,0.273-0.122,0.273-0.271c0-0.15-0.123-0.272-0.273-0.272H26.026z"/>
	<path fill="#00A750" d="M8.602,13.389c-0.15,0-0.272,0.122-0.272,0.272c0,0.148,0.122,0.271,0.272,0.271h5.373
		c0.15,0,0.271-0.122,0.271-0.271c0-0.15-0.121-0.272-0.271-0.272H8.602z"/>
	<path fill="#00A750" d="M11.016,16.348c0,0.15,0.121,0.272,0.271,0.272c0.149,0,0.271-0.122,0.271-0.272v-5.374
		c0-0.148-0.121-0.271-0.271-0.271c-0.15,0-0.271,0.122-0.271,0.271V16.348z"/>
</g>
</svg>
