<?xml version="1.0" encoding="utf-8"?>
<!-- Generator: Adobe Illustrator 16.0.0, SVG Export Plug-In . SVG Version: 6.00 Build 0)  -->
<!DOCTYPE svg PUBLIC "-//W3C//DTD SVG 1.1//EN" "http://www.w3.org/Graphics/SVG/1.1/DTD/svg11.dtd">
<svg version="1.1" id="图层_1" xmlns="http://www.w3.org/2000/svg" xmlns:xlink="http://www.w3.org/1999/xlink" x="0px" y="0px"
	 width="40px" height="40px" viewBox="-109.5 25.5 40 40" enable-background="new -109.5 25.5 40 40" xml:space="preserve">
<g id="图层_x0020_1">
	<g id="_841936816">
		<path id="_301754984" fill="#8324B3" d="M-89.5,25.792c5.442,0,10.369,2.206,13.936,5.772c3.567,3.566,5.773,8.494,5.773,13.936
			c0,5.443-2.206,10.369-5.773,13.936c-3.566,3.566-8.493,5.772-13.936,5.772s-10.369-2.206-13.936-5.772
			c-3.567-3.566-5.773-8.492-5.773-13.936c0-5.441,2.206-10.369,5.773-13.936C-99.869,27.998-94.942,25.792-89.5,25.792
			L-89.5,25.792z M-75.953,31.952c-3.467-3.466-8.256-5.61-13.547-5.61s-10.08,2.145-13.547,5.61
			c-3.467,3.467-5.611,8.257-5.611,13.548s2.144,10.081,5.611,13.548c3.467,3.466,8.256,5.61,13.547,5.61s10.08-2.145,13.547-5.61
			c3.467-3.467,5.611-8.257,5.611-13.548S-72.486,35.419-75.953,31.952L-75.953,31.952z"/>
		<path id="_301755200" fill="#8324B3" d="M-101.34,54.278c-0.152,0-0.275,0.124-0.275,0.274c0,0.152,0.123,0.276,0.275,0.276
			h23.532c0.152,0,0.274-0.124,0.274-0.276c0-0.15-0.123-0.274-0.274-0.274H-101.34z"/>
		<path id="_301755272" fill="#8324B3" d="M-101.34,57.145c-0.152,0-0.275,0.121-0.275,0.273s0.123,0.276,0.275,0.276h23.532
			c0.152,0,0.274-0.124,0.274-0.276s-0.123-0.273-0.274-0.273H-101.34z"/>
		<path id="_918805784" fill="#8324B3" d="M-101.224,36.245c-0.059-0.14-0.219-0.206-0.359-0.146
			c-0.139,0.058-0.205,0.218-0.146,0.358l7.319,17.328c0.059,0.141,0.22,0.206,0.358,0.146c0.14-0.058,0.205-0.219,0.146-0.358
			L-101.224,36.245L-101.224,36.245z"/>
		<path id="_918806456" fill="#8324B3" d="M-96.639,51.918c-0.131-0.076-0.299-0.031-0.375,0.099
			c-0.076,0.132-0.031,0.299,0.1,0.375l2.619,1.526c0.131,0.076,0.298,0.031,0.375-0.101c0.076-0.13,0.031-0.299-0.1-0.373
			L-96.639,51.918z"/>
		<path id="_918807344" fill="#8324B3" d="M-93.16,50.803c0.036-0.146-0.054-0.294-0.201-0.329
			c-0.147-0.037-0.295,0.054-0.332,0.199l-0.732,2.942c-0.036,0.146,0.054,0.295,0.201,0.332c0.147,0.034,0.296-0.054,0.332-0.202
			L-93.16,50.803z"/>
		<path id="_918804920" fill="#8324B3" d="M-96.027,31.544c-0.059-0.138-0.22-0.204-0.359-0.146
			c-0.14,0.058-0.205,0.219-0.146,0.358l7.32,17.331c0.059,0.138,0.219,0.204,0.358,0.146c0.14-0.06,0.205-0.221,0.146-0.358
			L-96.027,31.544L-96.027,31.544z"/>
		<path id="_918807128" fill="#8324B3" d="M-91.441,47.216c-0.131-0.076-0.299-0.03-0.375,0.102c-0.076,0.13-0.031,0.299,0.1,0.373
			l2.619,1.526c0.131,0.076,0.299,0.033,0.375-0.099c0.076-0.132,0.031-0.299-0.1-0.375L-91.441,47.216z"/>
		<path id="_918807680" fill="#8324B3" d="M-87.962,46.104c0.036-0.146-0.054-0.295-0.201-0.332
			c-0.146-0.034-0.295,0.056-0.332,0.202l-0.731,2.94c-0.037,0.148,0.054,0.296,0.201,0.333c0.147,0.035,0.296-0.053,0.332-0.201
			L-87.962,46.104z"/>
		<path id="_918795152" fill="#8324B3" d="M-88.892,31.787c-0.059-0.14-0.22-0.204-0.359-0.146c-0.14,0.058-0.205,0.219-0.146,0.358
			l7.319,17.331c0.059,0.138,0.219,0.204,0.358,0.146c0.14-0.061,0.205-0.221,0.146-0.358L-88.892,31.787L-88.892,31.787z"/>
		<path id="_918797744" fill="#8324B3" d="M-84.306,47.459c-0.131-0.076-0.299-0.03-0.375,0.1c-0.076,0.132-0.031,0.301,0.1,0.375
			l2.618,1.526c0.131,0.076,0.299,0.03,0.375-0.099c0.076-0.133,0.031-0.299-0.1-0.375L-84.306,47.459z"/>
		<path id="_918796400" fill="#8324B3" d="M-80.828,46.347c0.036-0.146-0.053-0.297-0.2-0.332c-0.147-0.037-0.296,0.054-0.332,0.2
			l-0.731,2.942c-0.037,0.146,0.053,0.294,0.201,0.331c0.147,0.037,0.296-0.054,0.332-0.201L-80.828,46.347z"/>
	</g>
</g>
</svg>
