<?xml version="1.0" encoding="utf-8"?>
<!-- Generator: Adobe Illustrator 16.0.0, SVG Export Plug-In . SVG Version: 6.00 Build 0)  -->
<!DOCTYPE svg PUBLIC "-//W3C//DTD SVG 1.1//EN" "http://www.w3.org/Graphics/SVG/1.1/DTD/svg11.dtd">
<svg version="1.1" id="图层_1" xmlns="http://www.w3.org/2000/svg" xmlns:xlink="http://www.w3.org/1999/xlink" x="0px" y="0px"
	 width="40px" height="40px" viewBox="0 0 40 40" enable-background="new 0 0 40 40" xml:space="preserve">
<g>
	<path fill="#7A2600" d="M39.146,21.273c0.15,0,0.271-0.119,0.271-0.27s-0.121-0.273-0.271-0.273h-4.498l-0.497-0.895h0.002
		c-0.072-0.132-0.238-0.179-0.371-0.106c-0.062,0.035-0.105,0.092-0.125,0.153l-0.685,1.737l-0.877-2.249l-0.254,0.098l0.254-0.1
		c-0.055-0.141-0.213-0.209-0.352-0.153c-0.084,0.032-0.144,0.102-0.164,0.184l-0.545,1.652l-1.195-4.93l-0.266,0.063l0.266-0.063
		c-0.035-0.146-0.184-0.235-0.328-0.2c-0.127,0.031-0.213,0.146-0.207,0.271l-0.393,7.585l-1.213-11.781l-0.271,0.027l0.271-0.027
		c-0.017-0.149-0.148-0.258-0.3-0.242c-0.139,0.015-0.243,0.133-0.243,0.271l-1.099,17.302L25.511,5.8L25.24,5.805l0.271-0.006
		c-0.002-0.15-0.127-0.27-0.277-0.266c-0.147,0.002-0.268,0.127-0.266,0.277l0,0l-0.783,20.55L23.38,13.675l-0.27,0.017l0.271-0.017
		c-0.01-0.15-0.141-0.265-0.289-0.255c-0.145,0.009-0.254,0.128-0.256,0.27L22.1,21.574l-0.602-5.167l-0.271,0.029l0.271-0.03
		c-0.019-0.149-0.154-0.257-0.303-0.238c-0.134,0.015-0.23,0.124-0.238,0.253c-0.023,0.199-0.312,2.637-0.502,4.302l-0.599-2.425
		l-0.264,0.063l0.264-0.063c-0.034-0.146-0.184-0.235-0.33-0.199c-0.11,0.027-0.188,0.12-0.202,0.229l-0.334,1.892l-0.406-1.194
		l-0.258,0.087l0.258-0.087c-0.049-0.143-0.203-0.219-0.346-0.17c-0.06,0.021-0.105,0.06-0.14,0.106l-0.899,1.178H0.817
		c-0.15,0-0.271,0.122-0.271,0.272c0,0.15,0.121,0.271,0.271,0.271h16.514h0.004c0.082,0,0.162-0.037,0.215-0.105l-0.215-0.166
		l0.215,0.164l0.687-0.896l0.579,1.701c0.027,0.098,0.109,0.178,0.216,0.197c0.147,0.023,0.289-0.074,0.313-0.223l-0.266-0.047
		l0.266,0.047l0.295-1.677l0.652,2.64c0.02,0.127,0.133,0.227,0.266,0.227c0.152,0,0.273-0.121,0.273-0.271
		c0-0.066,0.213-1.906,0.397-3.497l0.632,5.413c0.01,0.131,0.11,0.242,0.245,0.254c0.15,0.016,0.283-0.096,0.298-0.246l-0.271-0.023
		l0.271,0.023l0.655-7.032l0.922,14.557l-0.008,0.252c-0.004,0.15,0.111,0.275,0.261,0.281c0.151,0.004,0.276-0.113,0.28-0.262
		l0.011-0.254c0-0.01,0-0.02,0-0.029v0.029c-0.013,0.127-0.111,0.23-0.24,0.244l-0.08-0.002c-0.119-0.021-0.213-0.125-0.221-0.25
		l0.541-0.035c0,0.006,0,0.01,0,0.014l0.651-17.059l0.484,20.922c-0.011,0.148,0.104,0.279,0.254,0.289
		c0.149,0.01,0.279-0.104,0.289-0.256L25.93,35.59l0.273,0.016l1.289-20.311l1.237,12.012c0.005,0.141,0.113,0.256,0.257,0.264
		c0.151,0.01,0.278-0.107,0.286-0.258l-0.271-0.014l0.271,0.014l0.478-9.258l0.979,4.028c0.015,0.098,0.082,0.184,0.185,0.217
		c0.141,0.047,0.295-0.031,0.342-0.174l-0.258-0.084l0.258,0.084l0.609-1.854l0.844,2.17c0.021,0.076,0.08,0.143,0.162,0.176
		c0.139,0.055,0.297-0.016,0.352-0.154l-0.252-0.1l0.252,0.1l0.734-1.861l0.285,0.516c0.043,0.096,0.137,0.158,0.245,0.158h4.659
		V21.273z"/>
	<path fill="#7A2600" d="M20,0.499c5.387,0,10.262,2.183,13.791,5.712c3.526,3.528,5.711,8.405,5.711,13.79
		c0,5.386-2.185,10.261-5.711,13.791C30.262,37.32,25.387,39.502,20,39.502c-5.385,0-10.26-2.182-13.789-5.711
		S0.498,25.387,0.498,20c0-5.386,2.184-10.262,5.713-13.79C9.74,2.681,14.615,0.499,20,0.499z M33.406,6.595
		C29.974,3.165,25.236,1.042,20,1.042c-5.234,0-9.976,2.122-13.404,5.553C3.164,10.026,1.043,14.765,1.043,20
		c0,5.234,2.121,9.974,5.553,13.406c3.431,3.43,8.17,5.553,13.404,5.553c5.236,0,9.975-2.123,13.406-5.553
		c3.43-3.432,5.553-8.172,5.553-13.406C38.959,14.765,36.836,10.026,33.406,6.595L33.406,6.595z"/>
	<path fill="#7A2600" d="M20,3.565c4.539,0,8.647,1.84,11.623,4.813c2.975,2.974,4.813,7.084,4.813,11.622
		c0,4.539-1.84,8.646-4.813,11.623c-2.975,2.975-7.084,4.813-11.623,4.813s-8.648-1.84-11.621-4.813
		C5.404,28.646,3.564,24.539,3.564,20c0-4.538,1.841-8.648,4.814-11.622C11.352,5.403,15.461,3.565,20,3.565L20,3.565z
		 M31.365,8.635C28.459,5.727,24.438,3.927,20,3.927s-8.457,1.8-11.365,4.707C5.725,11.543,3.926,15.562,3.926,20
		c0,4.437,1.799,8.457,4.709,11.365c2.908,2.908,6.928,4.709,11.365,4.709c4.438,0,8.459-1.801,11.365-4.709
		c2.909-2.908,4.709-6.928,4.709-11.365C36.074,15.562,34.276,11.543,31.365,8.635L31.365,8.635z"/>
	<path fill="#7A2600" d="M20,6.54c3.717,0,7.082,1.507,9.52,3.941c2.437,2.437,3.943,5.803,3.943,9.52
		c0,3.716-1.508,7.083-3.943,9.517c-2.438,2.438-5.803,3.943-9.52,3.943s-7.082-1.506-9.519-3.943
		C8.044,27.082,6.539,23.717,6.539,20c0-3.718,1.506-7.083,3.942-9.52C12.918,8.046,16.283,6.54,20,6.54z M29.264,10.739
		C26.893,8.368,23.619,6.901,20,6.901c-3.617,0-6.892,1.467-9.262,3.838C8.367,13.108,6.901,16.383,6.901,20
		c0,3.617,1.466,6.892,3.837,9.261C13.108,31.633,16.383,33.1,20,33.1c3.619,0,6.893-1.467,9.264-3.838
		C31.633,26.893,33.1,23.617,33.1,20C33.1,16.383,31.633,13.11,29.264,10.739z"/>
	<path fill="#7A2600" d="M20,9.514c2.896,0,5.52,1.176,7.414,3.071c1.897,1.897,3.072,4.52,3.072,7.415
		c0,2.894-1.175,5.517-3.072,7.416c-1.896,1.896-4.519,3.07-7.414,3.07c-2.896,0-5.519-1.174-7.414-3.07
		C10.688,25.518,9.514,22.895,9.514,20c0-2.896,1.174-5.518,3.072-7.415C14.482,10.69,17.104,9.514,20,9.514z M27.158,12.842
		C25.326,11.01,22.797,9.877,20,9.877c-2.795,0-5.326,1.133-7.158,2.965S9.877,17.205,9.877,20c0,2.796,1.133,5.326,2.965,7.158
		s4.363,2.967,7.158,2.967c2.797,0,5.326-1.135,7.158-2.967c1.834-1.832,2.965-4.361,2.965-7.158
		C30.123,17.206,28.992,14.674,27.158,12.842z"/>
	<path fill="#7A2600" d="M20,12.489c2.074,0,3.953,0.841,5.313,2.199c1.357,1.358,2.199,3.236,2.199,5.312
		c0,2.075-0.842,3.952-2.199,5.311C23.954,26.67,22.075,27.51,20,27.51s-3.951-0.84-5.312-2.199c-1.358-1.357-2.2-3.236-2.2-5.311
		c0-2.075,0.842-3.952,2.2-5.312C16.049,13.33,17.926,12.489,20,12.489z M25.055,14.944C23.762,13.65,21.975,12.85,20,12.85
		c-1.974,0-3.762,0.8-5.055,2.094c-1.293,1.295-2.095,3.081-2.095,5.056c0,1.975,0.802,3.76,2.095,5.055
		c1.293,1.293,3.081,2.094,5.055,2.094c1.975,0,3.762-0.801,5.055-2.094c1.295-1.295,2.094-3.08,2.094-5.055
		C27.148,18.026,26.35,16.239,25.055,14.944L25.055,14.944z"/>
	<path fill="#7A2600" d="M20,15.464c1.252,0,2.387,0.508,3.209,1.328c0.817,0.821,1.328,1.955,1.328,3.208
		c0,1.251-0.511,2.386-1.328,3.207c-0.822,0.82-1.957,1.328-3.209,1.328s-2.387-0.508-3.207-1.328
		c-0.822-0.82-1.328-1.955-1.328-3.207c0-1.253,0.506-2.387,1.328-3.208C17.613,15.972,18.748,15.464,20,15.464z M22.951,17.049
		c-0.754-0.755-1.8-1.223-2.951-1.223c-1.152,0-2.195,0.468-2.951,1.223c-0.754,0.755-1.223,1.799-1.223,2.951
		c0,1.152,0.469,2.195,1.223,2.951c0.756,0.756,1.799,1.223,2.951,1.223c1.151,0,2.197-0.467,2.951-1.223
		c0.756-0.756,1.225-1.799,1.225-2.951C24.176,18.848,23.707,17.804,22.951,17.049z"/>
</g>
</svg>
